<svg width="113" height="113" viewBox="0 0 113 113" fill="none" xmlns="http://www.w3.org/2000/svg">
<path fill-rule="evenodd" clip-rule="evenodd" d="M60.7025 76.9883C79.9902 72.2282 92.625 55.3488 92.625 35.3125C92.625 25.947 88.9046 16.9652 82.2822 10.3428C75.6598 3.72041 66.678 0 57.3125 0C47.947 0 38.9652 3.72041 32.3428 10.3428C25.7204 16.9652 22 25.947 22 35.3125C22 55.3488 34.6348 72.2282 53.9225 76.9883L52.1992 80.4277C52.0954 80.6355 52.0334 80.8617 52.017 81.0934C52.0005 81.3251 52.0298 81.5577 52.1033 81.7781C52.2516 82.2231 52.5707 82.591 52.9902 82.8008C53.4098 83.0105 53.8955 83.0451 54.3406 82.8967C54.7856 82.7484 55.1535 82.4293 55.3633 82.0098L55.6457 81.4448C55.7093 82.6454 55.8153 83.6694 56.0059 84.6229C56.4862 87.0524 57.4749 89.0158 59.1699 92.4058L59.2617 92.6035C60.759 95.5839 60.5471 98.6066 59.6149 101.403C58.6614 104.243 57.03 106.707 55.8435 108.487C55.5831 108.877 55.4882 109.354 55.5796 109.813C55.671 110.273 55.9412 110.677 56.3308 110.938C56.7204 111.198 57.1975 111.293 57.6571 111.202C58.1167 111.11 58.5211 110.84 58.7815 110.45L58.8097 110.401C59.9821 108.65 61.8537 105.839 62.9625 102.526C64.0925 99.1434 64.4598 95.1036 62.4258 91.0215C60.6036 87.3843 59.8479 85.8518 59.4666 83.9308C59.3378 83.2564 59.2505 82.5748 59.2052 81.8897L59.2617 82.0098C59.4715 82.4293 59.8394 82.7484 60.2844 82.8967C60.7295 83.0451 61.2152 83.0105 61.6348 82.8008C62.0543 82.591 62.3734 82.2231 62.5217 81.7781C62.6701 81.3331 62.6355 80.8473 62.4258 80.4277L60.7025 76.9883ZM31.5485 23.7018C33.5409 19.2893 36.6328 15.4622 40.5281 12.5871C44.4234 9.71196 48.9917 7.88509 53.7954 7.28144C55.7164 7.04131 57.3125 8.6445 57.3125 10.5938C57.3125 12.543 55.7164 14.0968 53.7954 14.4216C47.086 15.5658 41.4431 19.9304 38.4486 25.8417C38.1181 26.5428 37.6001 27.1388 36.952 27.5638C36.3038 27.9888 35.5508 28.2263 34.7761 28.25C32.3324 28.25 30.5456 25.9264 31.5485 23.7018Z" fill="#EE2E24"/>
</svg>
